<svg width="1200" height="500" viewBox="0 0 1200 500" fill="none" xmlns="http://www.w3.org/2000/svg">
<rect width="1200" height="500" fill="white"/>
<path d="M471.308 266.683C470.906 269.806 470.102 272.682 468.896 275.311C467.69 277.908 466.113 280.15 464.165 282.037C462.247 283.892 459.959 285.346 457.299 286.397C454.671 287.417 451.733 287.928 448.486 287.928C445.703 287.928 443.167 287.541 440.878 286.768C438.621 285.964 436.595 284.866 434.802 283.475C433.039 282.083 431.508 280.444 430.209 278.558C428.942 276.671 427.875 274.615 427.009 272.388C426.174 270.162 425.54 267.827 425.107 265.384C424.705 262.941 424.488 260.467 424.458 257.962V248.545C424.488 246.041 424.705 243.567 425.107 241.124C425.54 238.681 426.174 236.346 427.009 234.119C427.875 231.893 428.942 229.836 430.209 227.95C431.508 226.032 433.039 224.378 434.802 222.986C436.595 221.595 438.621 220.512 440.878 219.739C443.136 218.935 445.672 218.533 448.486 218.533C451.857 218.533 454.872 219.059 457.531 220.11C460.191 221.131 462.479 222.6 464.396 224.517C466.314 226.403 467.845 228.676 468.989 231.336C470.164 233.995 470.937 236.933 471.308 240.149H462.727C462.448 238.108 461.969 236.207 461.289 234.444C460.608 232.681 459.696 231.135 458.552 229.805C457.408 228.475 456 227.439 454.331 226.697C452.692 225.924 450.743 225.538 448.486 225.538C446.445 225.538 444.636 225.878 443.059 226.558C441.512 227.208 440.167 228.104 439.023 229.249C437.91 230.393 436.966 231.722 436.193 233.238C435.451 234.753 434.848 236.361 434.384 238.062C433.92 239.763 433.58 241.51 433.364 243.304C433.178 245.066 433.085 246.783 433.085 248.453V257.962C433.085 259.632 433.178 261.364 433.364 263.157C433.58 264.92 433.92 266.667 434.384 268.399C434.848 270.1 435.451 271.708 436.193 273.223C436.936 274.738 437.879 276.084 439.023 277.259C440.167 278.403 441.512 279.315 443.059 279.996C444.605 280.645 446.414 280.97 448.486 280.97C450.743 280.97 452.692 280.614 454.331 279.903C456 279.192 457.408 278.202 458.552 276.934C459.696 275.635 460.608 274.12 461.289 272.388C461.969 270.625 462.448 268.724 462.727 266.683H471.308Z" fill="#162A41"/>
<path d="M488.503 244.278C490.296 241.649 492.507 239.608 495.136 238.155C497.765 236.67 500.718 235.913 503.996 235.882C506.624 235.882 509.006 236.268 511.139 237.042C513.304 237.784 515.144 238.959 516.659 240.567C518.175 242.175 519.334 244.216 520.138 246.69C520.973 249.133 521.391 252.04 521.391 255.411V287H512.809V255.318C512.809 251.205 511.82 248.143 509.841 246.133C507.892 244.123 505.094 243.134 501.445 243.165C498.692 243.165 496.187 243.845 493.93 245.206C491.703 246.535 489.894 248.313 488.503 250.54V287H479.921V215.75H488.503V244.278Z" fill="#162A41"/>
<path d="M564.258 287C563.918 286.351 563.639 285.547 563.423 284.588C563.237 283.598 563.098 282.578 563.005 281.526C562.139 282.392 561.165 283.212 560.083 283.985C559.031 284.758 557.856 285.438 556.558 286.026C555.29 286.613 553.929 287.077 552.475 287.417C551.022 287.758 549.476 287.928 547.837 287.928C545.177 287.928 542.765 287.541 540.6 286.768C538.467 285.995 536.642 284.959 535.127 283.66C533.642 282.33 532.483 280.769 531.648 278.975C530.844 277.151 530.442 275.187 530.442 273.084C530.442 270.332 530.983 267.92 532.065 265.848C533.179 263.776 534.74 262.059 536.75 260.699C538.76 259.307 541.173 258.271 543.987 257.591C546.832 256.91 550.002 256.57 553.496 256.57H562.866V252.627C562.866 251.112 562.588 249.751 562.031 248.545C561.475 247.339 560.686 246.319 559.665 245.484C558.645 244.618 557.392 243.953 555.908 243.489C554.455 243.025 552.816 242.793 550.991 242.793C549.29 242.793 547.76 243.01 546.399 243.443C545.069 243.876 543.94 244.448 543.013 245.159C542.085 245.87 541.358 246.721 540.832 247.71C540.338 248.669 540.09 249.674 540.09 250.726H531.462C531.493 248.901 531.957 247.107 532.854 245.345C533.782 243.582 535.096 242.005 536.797 240.613C538.529 239.191 540.616 238.047 543.059 237.181C545.533 236.315 548.332 235.882 551.455 235.882C554.3 235.882 556.944 236.237 559.387 236.949C561.83 237.629 563.933 238.681 565.696 240.103C567.489 241.495 568.896 243.242 569.917 245.345C570.937 247.448 571.448 249.906 571.448 252.72V276.053C571.448 277.723 571.602 279.501 571.912 281.387C572.221 283.243 572.654 284.866 573.21 286.258V287H564.258ZM549.089 280.459C550.759 280.459 552.321 280.243 553.774 279.81C555.228 279.377 556.542 278.805 557.717 278.094C558.923 277.382 559.959 276.578 560.825 275.682C561.691 274.754 562.371 273.795 562.866 272.806V262.647H554.888C549.878 262.647 545.981 263.389 543.198 264.874C540.415 266.358 539.023 268.693 539.023 271.878C539.023 273.115 539.224 274.259 539.626 275.311C540.059 276.362 540.693 277.274 541.528 278.047C542.363 278.79 543.415 279.377 544.683 279.81C545.95 280.243 547.419 280.459 549.089 280.459Z" fill="#162A41"/>
<path d="M590.333 236.81L590.936 244.231C592.76 241.634 595.002 239.608 597.662 238.155C600.321 236.67 603.29 235.913 606.568 235.882C609.197 235.882 611.578 236.253 613.712 236.995C615.876 237.737 617.716 238.897 619.232 240.474C620.747 242.051 621.907 244.061 622.711 246.504C623.546 248.917 623.963 251.792 623.963 255.132V287H615.381V255.318C615.381 253.091 615.134 251.205 614.639 249.659C614.144 248.112 613.402 246.86 612.413 245.901C611.454 244.943 610.263 244.247 608.841 243.814C607.449 243.381 605.841 243.165 604.017 243.165C601.141 243.165 598.605 243.891 596.409 245.345C594.245 246.767 592.513 248.654 591.214 251.004V287H582.632V236.81H590.333Z" fill="#162A41"/>
<path d="M632.411 261.487C632.411 257.745 632.859 254.313 633.756 251.189C634.684 248.035 636.014 245.329 637.745 243.072C639.477 240.814 641.58 239.052 644.054 237.784C646.528 236.516 649.327 235.882 652.45 235.882C655.542 235.882 658.248 236.438 660.568 237.552C662.918 238.634 664.913 240.211 666.552 242.283L666.969 236.81H674.762V285.933C674.762 289.242 674.236 292.18 673.185 294.747C672.164 297.313 670.711 299.493 668.825 301.287C666.969 303.081 664.742 304.441 662.145 305.369C659.547 306.297 656.671 306.761 653.517 306.761C652.218 306.761 650.734 306.606 649.064 306.297C647.394 306.019 645.693 305.539 643.961 304.859C642.26 304.209 640.606 303.328 638.998 302.215C637.421 301.102 636.06 299.725 634.916 298.086L639.369 292.938C640.42 294.205 641.503 295.272 642.616 296.138C643.729 297.035 644.858 297.746 646.002 298.272C647.146 298.798 648.291 299.169 649.435 299.385C650.579 299.633 651.723 299.756 652.867 299.756C654.908 299.756 656.748 299.463 658.387 298.875C660.026 298.287 661.418 297.422 662.562 296.277C663.737 295.164 664.634 293.772 665.253 292.103C665.871 290.433 666.18 288.515 666.18 286.351V282.037C664.511 283.954 662.531 285.423 660.243 286.443C657.985 287.433 655.357 287.928 652.357 287.928C649.296 287.928 646.528 287.278 644.054 285.979C641.58 284.681 639.477 282.887 637.745 280.599C636.045 278.31 634.73 275.62 633.803 272.527C632.875 269.404 632.411 266.049 632.411 262.461V261.487ZM640.992 262.461C640.992 264.904 641.24 267.224 641.735 269.419C642.26 271.615 643.064 273.548 644.147 275.218C645.26 276.888 646.667 278.217 648.368 279.207C650.069 280.166 652.11 280.645 654.491 280.645C655.975 280.645 657.305 280.475 658.48 280.135C659.686 279.764 660.753 279.253 661.681 278.604C662.64 277.955 663.49 277.181 664.232 276.285C664.974 275.388 665.624 274.398 666.18 273.316V250.308C665.624 249.257 664.974 248.298 664.232 247.432C663.49 246.566 662.64 245.824 661.681 245.206C660.722 244.556 659.655 244.061 658.48 243.721C657.305 243.35 656.006 243.165 654.584 243.165C652.172 243.165 650.1 243.659 648.368 244.649C646.667 245.639 645.26 246.984 644.147 248.685C643.064 250.354 642.26 252.303 641.735 254.529C641.24 256.725 640.992 259.044 640.992 261.487V262.461Z" fill="#162A41"/>
<path d="M707.517 287.928C703.991 287.928 700.744 287.325 697.775 286.119C694.838 284.913 692.317 283.227 690.214 281.062C688.111 278.898 686.472 276.331 685.297 273.362C684.122 270.394 683.535 267.162 683.535 263.667V261.719C683.535 257.668 684.184 254.05 685.483 250.865C686.782 247.649 688.498 244.943 690.632 242.747C692.797 240.521 695.24 238.82 697.961 237.645C700.713 236.469 703.527 235.882 706.403 235.882C710.021 235.882 713.176 236.516 715.866 237.784C718.588 239.021 720.845 240.752 722.639 242.979C724.432 245.175 725.762 247.772 726.628 250.772C727.525 253.772 727.973 257.019 727.973 260.513V264.363H692.116C692.209 266.652 692.642 268.801 693.415 270.811C694.219 272.821 695.301 274.584 696.662 276.099C698.054 277.583 699.708 278.759 701.625 279.625C703.543 280.49 705.661 280.923 707.98 280.923C711.042 280.923 713.763 280.305 716.145 279.068C718.526 277.831 720.505 276.192 722.082 274.151L727.324 278.233C726.489 279.501 725.437 280.722 724.169 281.897C722.932 283.042 721.494 284.062 719.855 284.959C718.216 285.856 716.361 286.567 714.289 287.093C712.217 287.649 709.96 287.928 707.517 287.928ZM706.403 242.933C704.672 242.933 703.033 243.257 701.486 243.907C699.94 244.525 698.549 245.453 697.312 246.69C696.075 247.896 695.023 249.396 694.157 251.189C693.322 252.952 692.735 254.993 692.395 257.312H719.392V256.663C719.299 254.993 718.974 253.339 718.417 251.7C717.892 250.061 717.103 248.592 716.052 247.293C715 245.994 713.671 244.943 712.062 244.139C710.485 243.335 708.599 242.933 706.403 242.933Z" fill="#162A41"/>
<path d="M769.051 273.687C769.051 272.667 768.85 271.754 768.448 270.95C768.046 270.115 767.366 269.358 766.407 268.677C765.449 267.997 764.181 267.378 762.604 266.822C761.027 266.234 759.063 265.708 756.713 265.245C753.837 264.657 751.208 263.946 748.827 263.111C746.477 262.276 744.451 261.286 742.75 260.142C741.08 258.967 739.781 257.606 738.854 256.06C737.926 254.483 737.462 252.658 737.462 250.586C737.462 248.545 737.941 246.644 738.9 244.881C739.859 243.087 741.204 241.526 742.936 240.196C744.668 238.866 746.724 237.815 749.105 237.042C751.517 236.268 754.161 235.882 757.037 235.882C760.13 235.882 762.913 236.284 765.387 237.088C767.861 237.892 769.964 239.005 771.695 240.428C773.427 241.85 774.757 243.52 775.685 245.438C776.643 247.324 777.123 249.365 777.123 251.561H768.541C768.541 250.478 768.263 249.427 767.706 248.406C767.15 247.355 766.376 246.427 765.387 245.623C764.397 244.819 763.191 244.17 761.769 243.675C760.377 243.18 758.8 242.933 757.037 242.933C755.213 242.933 753.605 243.134 752.213 243.536C750.852 243.938 749.708 244.479 748.78 245.159C747.884 245.84 747.203 246.628 746.739 247.525C746.276 248.422 746.044 249.349 746.044 250.308C746.044 251.298 746.229 252.179 746.6 252.952C746.971 253.725 747.605 254.421 748.502 255.04C749.43 255.658 750.651 256.215 752.167 256.709C753.713 257.204 755.661 257.684 758.011 258.147C761.104 258.797 763.872 259.555 766.315 260.42C768.758 261.255 770.814 262.276 772.484 263.482C774.154 264.657 775.422 266.033 776.288 267.61C777.185 269.188 777.633 271.012 777.633 273.084C777.633 275.311 777.123 277.336 776.102 279.161C775.113 280.985 773.721 282.547 771.927 283.846C770.134 285.145 767.985 286.15 765.48 286.861C762.975 287.572 760.238 287.928 757.269 287.928C753.868 287.928 750.837 287.479 748.177 286.583C745.518 285.655 743.26 284.449 741.405 282.964C739.58 281.449 738.173 279.702 737.184 277.723C736.225 275.743 735.746 273.687 735.746 271.553H744.327C744.451 273.316 744.915 274.8 745.719 276.006C746.554 277.212 747.574 278.187 748.78 278.929C750.017 279.671 751.378 280.197 752.862 280.506C754.347 280.815 755.816 280.97 757.269 280.97C760.887 280.97 763.748 280.305 765.851 278.975C767.954 277.645 769.021 275.883 769.051 273.687Z" fill="#162A41"/>
<path d="M809.228 287.928C805.703 287.928 802.455 287.325 799.487 286.119C796.549 284.913 794.029 283.227 791.926 281.062C789.823 278.898 788.184 276.331 787.009 273.362C785.834 270.394 785.246 267.162 785.246 263.667V261.719C785.246 257.668 785.895 254.05 787.194 250.865C788.493 247.649 790.209 244.943 792.343 242.747C794.508 240.521 796.951 238.82 799.672 237.645C802.425 236.469 805.239 235.882 808.115 235.882C811.733 235.882 814.887 236.516 817.578 237.784C820.299 239.021 822.556 240.752 824.35 242.979C826.144 245.175 827.473 247.772 828.339 250.772C829.236 253.772 829.684 257.019 829.684 260.513V264.363H793.828C793.92 266.652 794.353 268.801 795.126 270.811C795.93 272.821 797.013 274.584 798.373 276.099C799.765 277.583 801.42 278.759 803.337 279.625C805.254 280.49 807.372 280.923 809.692 280.923C812.753 280.923 815.475 280.305 817.856 279.068C820.237 277.831 822.216 276.192 823.793 274.151L829.035 278.233C828.2 279.501 827.149 280.722 825.881 281.897C824.644 283.042 823.206 284.062 821.567 284.959C819.928 285.856 818.072 286.567 816 287.093C813.928 287.649 811.671 287.928 809.228 287.928ZM808.115 242.933C806.383 242.933 804.744 243.257 803.198 243.907C801.651 244.525 800.26 245.453 799.023 246.69C797.786 247.896 796.734 249.396 795.869 251.189C795.034 252.952 794.446 254.993 794.106 257.312H821.103V256.663C821.01 254.993 820.685 253.339 820.129 251.7C819.603 250.061 818.815 248.592 817.763 247.293C816.712 245.994 815.382 244.943 813.774 244.139C812.197 243.335 810.31 242.933 808.115 242.933Z" fill="#162A41"/>
<path d="M854.728 224.656V236.81H873.839V243.443H854.728V270.718C854.728 272.667 854.976 274.275 855.47 275.542C855.965 276.81 856.645 277.831 857.511 278.604C858.377 279.346 859.367 279.872 860.48 280.181C861.624 280.49 862.83 280.645 864.098 280.645C865.026 280.645 865.985 280.599 866.974 280.506C867.964 280.382 868.922 280.243 869.85 280.088C870.809 279.934 871.69 279.779 872.494 279.625C873.329 279.439 874.01 279.284 874.535 279.161L875.741 285.237C875.03 285.67 874.164 286.057 873.144 286.397C872.123 286.706 871.01 286.969 869.804 287.186C868.598 287.433 867.314 287.618 865.954 287.742C864.624 287.866 863.294 287.928 861.964 287.928C859.738 287.928 857.65 287.618 855.702 287C853.785 286.351 852.115 285.346 850.692 283.985C849.27 282.593 848.141 280.815 847.306 278.65C846.502 276.455 846.1 273.811 846.1 270.718V243.443H832.926V236.81H846.1V224.656H854.728Z" fill="#162A41"/>
<path d="M914.118 273.687C914.118 272.667 913.917 271.754 913.515 270.95C913.113 270.115 912.433 269.358 911.474 268.677C910.516 267.997 909.248 267.378 907.671 266.822C906.094 266.234 904.13 265.708 901.78 265.245C898.904 264.657 896.275 263.946 893.894 263.111C891.544 262.276 889.518 261.286 887.817 260.142C886.147 258.967 884.848 257.606 883.921 256.06C882.993 254.483 882.529 252.658 882.529 250.586C882.529 248.545 883.008 246.644 883.967 244.881C884.926 243.087 886.271 241.526 888.003 240.196C889.735 238.866 891.791 237.815 894.172 237.042C896.584 236.268 899.228 235.882 902.104 235.882C905.197 235.882 907.98 236.284 910.454 237.088C912.928 237.892 915.031 239.005 916.763 240.428C918.494 241.85 919.824 243.52 920.752 245.438C921.71 247.324 922.19 249.365 922.19 251.561H913.608C913.608 250.478 913.33 249.427 912.773 248.406C912.217 247.355 911.444 246.427 910.454 245.623C909.464 244.819 908.258 244.17 906.836 243.675C905.444 243.18 903.867 242.933 902.104 242.933C900.28 242.933 898.672 243.134 897.28 243.536C895.919 243.938 894.775 244.479 893.847 245.159C892.951 245.84 892.27 246.628 891.806 247.525C891.343 248.422 891.111 249.349 891.111 250.308C891.111 251.298 891.296 252.179 891.667 252.952C892.038 253.725 892.672 254.421 893.569 255.04C894.497 255.658 895.718 256.215 897.234 256.709C898.78 257.204 900.728 257.684 903.078 258.147C906.171 258.797 908.939 259.555 911.382 260.42C913.825 261.255 915.881 262.276 917.551 263.482C919.221 264.657 920.489 266.033 921.355 267.61C922.252 269.188 922.7 271.012 922.7 273.084C922.7 275.311 922.19 277.336 921.169 279.161C920.18 280.985 918.788 282.547 916.994 283.846C915.201 285.145 913.052 286.15 910.547 286.861C908.042 287.572 905.305 287.928 902.336 287.928C898.935 287.928 895.904 287.479 893.244 286.583C890.585 285.655 888.327 284.449 886.472 282.964C884.647 281.449 883.24 279.702 882.251 277.723C881.292 275.743 880.813 273.687 880.813 271.553H889.394C889.518 273.316 889.982 274.8 890.786 276.006C891.621 277.212 892.641 278.187 893.847 278.929C895.084 279.671 896.445 280.197 897.93 280.506C899.414 280.815 900.883 280.97 902.336 280.97C905.954 280.97 908.815 280.305 910.918 278.975C913.021 277.645 914.088 275.883 914.118 273.687Z" fill="#162A41"/>
<path d="M328.997 252.998C328.997 227.594 308.403 207 282.999 207H260C260 232.404 280.594 252.998 305.998 252.998H328.997Z" fill="url(#paint0_linear)"/>
<path d="M328.997 252.998C328.997 278.402 308.403 298.996 282.999 298.996H273.799C273.799 273.592 294.393 252.998 319.797 252.998L328.997 252.998Z" fill="url(#paint1_linear)"/>
<path d="M321.637 252.998C321.637 227.594 342.231 207 367.635 207H390.634C390.634 232.404 370.04 252.998 344.636 252.998H321.637Z" fill="url(#paint2_linear)"/>
<path d="M321.637 252.998C321.637 278.402 342.231 298.996 367.635 298.996H376.835C376.835 273.592 356.241 252.998 330.837 252.998L321.637 252.998Z" fill="url(#paint3_linear)"/>
<path d="M325.317 234.94C327.686 240.484 328.997 246.588 328.997 252.998C328.997 259.408 327.686 265.512 325.317 271.055C322.948 265.512 321.637 259.408 321.637 252.998C321.637 246.588 322.948 240.484 325.317 234.94Z" fill="#0088CC"/>
<defs>
<linearGradient id="paint0_linear" x1="329" y1="299" x2="260" y2="207" gradientUnits="userSpaceOnUse">
<stop stop-color="#001B33"/>
<stop offset="1" stop-color="#006DCC"/>
</linearGradient>
<linearGradient id="paint1_linear" x1="329" y1="299" x2="260" y2="207" gradientUnits="userSpaceOnUse">
<stop stop-color="#001B33"/>
<stop offset="1" stop-color="#006DCC"/>
</linearGradient>
<linearGradient id="paint2_linear" x1="322" y1="299" x2="391" y2="207" gradientUnits="userSpaceOnUse">
<stop stop-color="#0089D6"/>
<stop offset="1" stop-color="#66CCFF"/>
</linearGradient>
<linearGradient id="paint3_linear" x1="322" y1="299" x2="391" y2="207" gradientUnits="userSpaceOnUse">
<stop stop-color="#0089D6"/>
<stop offset="1" stop-color="#66CCFF"/>
</linearGradient>
</defs>
</svg>
